<svg xmlns="http://www.w3.org/2000/svg" viewBox="0 0 2605.19 76.4"><defs><style>.cls-1{opacity:0.72;}.cls-2{fill:#e49334;}.cls-3{fill:#ffbf6f;}</style></defs><g id="Layer_2" data-name="Layer 2"><g id="Layer_1-2" data-name="Layer 1"><g class="cls-1"><path class="cls-2" d="M0,2C35.27-.4,88.89,1.14,124.71,1c36,.4,89.26-.69,124.7,1.92C214.14,5.24,160.52,3.79,124.7,4,88.74,3.51,35.44,4.7,0,2Z"/></g><g class="cls-1"><path class="cls-3" d="M228,28.61c10.19-.48,26.54-1,36.88-1.38l36.88.13,147.5.5c21.47-.17,52.53.42,73.74,1.75-21.11,1.19-52.24,1.58-73.75,1.25l-147.5-.5-36.88-.11c-10.28-.44-26.66-1.08-36.87-1.64Z"/></g><g class="cls-1"><path class="cls-3" d="M586,47.68c10.19-.49,26.54-1,36.88-1.39l36.87.14,147.5.5c21.48-.18,52.53.41,73.75,1.75-21.12,1.18-52.25,1.57-73.76,1.25l-147.5-.5-36.87-.12c-10.28-.44-26.67-1.07-36.87-1.63Z"/></g><g class="cls-1"><path class="cls-3" d="M70,69.55c6.82-.6,13.65-1,20.48-1.44,12.89.06,48.05.18,61.41.22l61.42.21c6.82.53,13.65.94,20.47,1.57-6.83.58-13.65,1-20.48,1.43l-61.42-.21c-13.48,0-48.36-.17-61.41-.2-6.83-.46-13.65-.93-20.47-1.58Z"/></g><g class="cls-1"><path class="cls-2" d="M467,3.61c6.83-.6,13.65-1,20.48-1.44l61.42.22,61.41.21c6.83.52,13.65.93,20.47,1.57-6.83.58-13.65.94-20.48,1.43l-61.41-.21c-13.48,0-48.37-.17-61.42-.2-6.82-.46-13.65-.93-20.47-1.58Z"/></g><g class="cls-1"><path class="cls-2" d="M477,70.93c3.41-.61,6.82-1,10.24-1.48,6.45,0,24,.1,30.71.12l30.71.1c3.41.47,6.82.93,10.23,1.54-3.42.59-6.83,1-10.24,1.46L518,72.57l-30.71-.09c-3.41-.46-6.82-.91-10.23-1.55Z"/></g><g class="cls-1"><path class="cls-2" d="M744,15.88c3.41-.61,6.82-1,10.24-1.48,6.44,0,24,.1,30.71.12l30.7.11c3.41.46,6.83.92,10.24,1.53-3.42.59-6.83,1-10.25,1.47L785,17.52l-30.71-.09c-3.41-.45-6.82-.91-10.23-1.55Z"/></g><g class="cls-1"><path class="cls-2" d="M862.44,5.75c35.27-2.43,88.89-.89,124.71-1.08,36,.4,89.26-.68,124.7,1.92C1076.59,9,1023,7.52,987.14,7.67c-36-.44-89.25.75-124.7-1.92Z"/></g><g class="cls-1"><path class="cls-3" d="M1090.48,32.34c10.19-.49,26.54-1,36.88-1.39l36.88.14,147.5.5c21.48-.18,52.53.41,73.74,1.75-21.11,1.18-52.24,1.57-73.75,1.25l-147.5-.5L1127.35,34c-10.28-.44-26.66-1.07-36.87-1.63Z"/></g><g class="cls-1"><path class="cls-3" d="M1448.48,51.4c10.19-.49,26.54-1,36.88-1.39l36.87.14,147.5.5c21.48-.17,52.53.42,73.75,1.75-21.12,1.19-52.24,1.58-73.76,1.25l-147.5-.5L1485.35,53c-10.28-.44-26.67-1.08-36.87-1.64Z"/></g><g class="cls-1"><path class="cls-3" d="M932.47,73.28c6.83-.6,13.65-1,20.48-1.45,12.89.06,48,.18,61.41.22l61.42.21c6.82.53,13.65.94,20.47,1.57-6.83.59-13.65,1-20.48,1.43l-61.42-.21c-13.48,0-48.36-.16-61.41-.19-6.83-.47-13.65-.94-20.47-1.58Z"/></g><g class="cls-1"><path class="cls-2" d="M1329.48,7.33c6.83-.6,13.65-1,20.48-1.44,12.9.06,48,.18,61.42.22l61.41.21c6.83.53,13.65.94,20.47,1.57-6.82.58-13.65,1-20.48,1.43l-61.41-.21L1350,8.91c-6.82-.46-13.64-.93-20.47-1.58Z"/></g><g class="cls-1"><path class="cls-2" d="M1339.47,74.66c3.41-.62,6.83-1,10.24-1.48l30.71.11,30.71.11c3.41.47,6.82.92,10.23,1.53-3.42.59-6.83,1-10.24,1.47l-30.71-.11c-6.74,0-24.18-.08-30.71-.08-3.41-.46-6.82-.92-10.23-1.55Z"/></g><g class="cls-1"><path class="cls-2" d="M1606.47,19.61c3.41-.62,6.82-1.05,10.24-1.48,6.45,0,24,.1,30.71.12l30.7.1c3.42.47,6.83.92,10.24,1.54-3.42.59-6.83,1-10.25,1.46l-30.7-.1c-6.74,0-24.19-.09-30.71-.09-3.41-.46-6.82-.91-10.23-1.55Z"/></g><g class="cls-1"><path class="cls-2" d="M1724.15,1.39C1759.41-1,1813,.5,1848.86.31c36,.4,89.25-.69,124.7,1.92-35.27,2.37-88.89.92-124.71,1.08-36-.44-89.26.75-124.7-1.92Z"/></g><g class="cls-1"><path class="cls-3" d="M1952.19,28c10.19-.48,26.54-1,36.88-1.38l36.87.13,147.5.5c21.48-.17,52.53.42,73.75,1.75-21.12,1.19-52.25,1.58-73.76,1.25l-147.5-.5-36.87-.11c-10.28-.44-26.67-1.08-36.87-1.64Z"/></g><g class="cls-1"><path class="cls-3" d="M2310.19,47c10.19-.49,26.53-1,36.88-1.39l36.87.14,147.5.5c21.48-.18,52.53.41,73.75,1.75-21.12,1.18-52.25,1.57-73.76,1.25l-147.5-.5-36.88-.11c-10.28-.45-26.66-1.08-36.86-1.64Z"/></g><g class="cls-1"><path class="cls-3" d="M1794.18,68.91c6.82-.6,13.65-1,20.47-1.44,12.9.06,48,.18,61.42.22l61.42.21c6.82.53,13.64.94,20.46,1.57-6.82.58-13.65,1-20.47,1.43l-61.42-.21-61.42-.2c-6.82-.46-13.64-.93-20.46-1.58Z"/></g><g class="cls-1"><path class="cls-2" d="M2191.19,3c6.82-.6,13.65-1,20.48-1.44,12.89.06,48,.17,61.41.22L2334.5,2c6.82.53,13.65.93,20.47,1.57-6.83.58-13.65.94-20.48,1.43l-61.42-.21c-13.48,0-48.36-.17-61.41-.2-6.83-.46-13.65-.93-20.47-1.58Z"/></g><g class="cls-1"><path class="cls-2" d="M2201.17,70.29c3.42-.61,6.83-1,10.24-1.48,6.45,0,24,.1,30.71.12l30.71.11c3.41.46,6.82.92,10.23,1.53-3.41.59-6.82,1-10.24,1.47l-30.71-.11-30.71-.09c-3.41-.46-6.82-.91-10.23-1.55Z"/></g><g class="cls-1"><path class="cls-2" d="M2468.17,15.25c3.42-.62,6.83-1.05,10.24-1.49,6.45,0,24,.1,30.71.12l30.71.11c3.41.47,6.82.92,10.23,1.53-3.41.59-6.83,1-10.24,1.47l-30.71-.11-30.71-.09c-3.41-.45-6.82-.91-10.23-1.54Z"/></g></g></g></svg>